<svg xmlns="http://www.w3.org/2000/svg" width="200" height="38" viewBox="0 0 200 38" fill="none"><g clip-path="url(#clip0_1074_85)"><path d="M48.5535 0.475623H58.7823V2.93611H51.3755V7.27683H58.3574V9.64854H51.3755V16.3166H48.5567V0.475623H48.5535Z" fill="#000F1F"></path><path d="M65.092 8.35488C65.092 7.08659 65.3045 5.94196 65.7293 4.92098C66.1542 3.90001 66.744 3.03123 67.4986 2.31464C68.2532 1.59806 69.1474 1.04635 70.1842 0.659525C71.221 0.272696 72.3498 0.0761108 73.5737 0.0761108C74.7976 0.0761108 75.9518 0.269525 76.9981 0.659525C78.0413 1.04635 78.9449 1.59806 79.7059 2.31464C80.4669 3.03123 81.0598 3.90001 81.4847 4.92098C81.9096 5.94196 82.122 7.08976 82.122 8.35488C82.122 9.62 81.9096 10.7234 81.4847 11.7444C81.0598 12.7654 80.4669 13.6468 79.7059 14.3856C78.9449 15.1244 78.0413 15.6983 76.9981 16.1073C75.9549 16.5163 74.8135 16.7224 73.5737 16.7224C72.334 16.7224 71.221 16.5163 70.1842 16.1073C69.1474 15.6983 68.2532 15.1212 67.4986 14.3856C66.744 13.6468 66.1542 12.7654 65.7293 11.7444C65.3045 10.7234 65.092 9.59147 65.092 8.35488ZM68.1581 8.35488C68.1581 9.20464 68.2881 9.98463 68.5513 10.6949C68.8113 11.4051 69.1854 12.0202 69.6705 12.5402C70.1557 13.0634 70.7296 13.4693 71.3954 13.761C72.0581 14.0527 72.7937 14.1985 73.5991 14.1985C74.4044 14.1985 75.1432 14.0527 75.8154 13.761C76.4876 13.4693 77.0647 13.0634 77.5498 12.5402C78.0349 12.0171 78.4091 11.4019 78.6691 10.6949C78.9291 9.98781 79.0622 9.20781 79.0622 8.35488C79.0622 7.50196 78.9322 6.77269 78.6691 6.07196C78.4059 5.37123 78.0381 4.75928 77.5625 4.23611C77.0837 3.71294 76.5098 3.30391 75.8408 3.00586C75.1686 2.70781 74.4235 2.55879 73.6023 2.55879C72.781 2.55879 72.0391 2.70781 71.3764 3.00586C70.7137 3.30391 70.143 3.71611 69.6642 4.23611C69.1854 4.75928 68.8176 5.37123 68.5576 6.07196C68.2976 6.77269 68.1645 7.53366 68.1645 8.35488H68.1581Z" fill="#000F1F"></path><path d="M101.952 10.5015C101.952 11.4559 101.787 12.3183 101.46 13.0856C101.131 13.8529 100.683 14.5061 100.116 15.0451C99.5483 15.581 98.8761 15.9963 98.1025 16.288C97.3256 16.5797 96.4822 16.7256 95.5722 16.7256C94.6622 16.7256 93.8188 16.5797 93.042 16.288C92.2652 15.9963 91.5898 15.5841 91.0159 15.0451C90.442 14.5093 89.9949 13.8561 89.6715 13.0856C89.3513 12.3183 89.1896 11.4559 89.1896 10.5015V0.475623H92.0083V10.3905C92.0083 10.8534 92.0686 11.3132 92.1859 11.7666C92.3064 12.2232 92.503 12.629 92.7788 12.9873C93.0547 13.3456 93.4193 13.6373 93.8759 13.8593C94.3325 14.0844 94.8937 14.1954 95.5659 14.1954C96.2381 14.1954 96.7993 14.0844 97.2559 13.8593C97.7093 13.6341 98.0771 13.3456 98.353 12.9873C98.6288 12.629 98.8254 12.2232 98.9459 11.7666C99.0664 11.3132 99.1234 10.8534 99.1234 10.3905V0.475623H101.942V10.5015H101.952Z" fill="#000F1F"></path><path d="M109.787 0.475623H113.525L120.887 12.3373H120.932V0.475623H123.75V16.3229H120.171L112.65 4.08074H112.605V16.3229H109.787V0.475623Z" fill="#000F1F"></path><path d="M131.719 0.475623H137.337C138.368 0.475623 139.404 0.608793 140.448 0.878305C141.491 1.14782 142.432 1.59172 143.266 2.21001C144.1 2.8283 144.782 3.64318 145.302 4.6483C145.825 5.65659 146.085 6.90586 146.085 8.3961C146.085 9.78488 145.825 10.9771 145.302 11.9759C144.779 12.9746 144.1 13.7958 143.266 14.4363C142.429 15.0768 141.491 15.5524 140.448 15.8568C139.404 16.1612 138.368 16.3166 137.337 16.3166H131.719V0.475623ZM136.887 13.8593C137.616 13.8593 138.349 13.7737 139.081 13.6024C139.813 13.4312 140.473 13.1395 141.063 12.7305C141.652 12.3215 142.134 11.7634 142.505 11.0627C142.879 10.362 143.063 9.47415 143.063 8.39927C143.063 7.26415 142.876 6.34147 142.505 5.62488C142.131 4.9083 141.652 4.35025 141.063 3.94757C140.473 3.54489 139.813 3.26903 139.081 3.12001C138.349 2.97099 137.619 2.89489 136.887 2.89489H134.537V13.8593H136.887Z" fill="#000F1F"></path><path d="M153.292 0.475623H163.787V2.93611H156.111V6.9661H163.385V9.33781H156.111V13.8149H164.19V16.3229H153.292V0.475623Z" fill="#000F1F"></path><path d="M171.422 0.475623H176.927C177.672 0.475623 178.395 0.554891 179.099 0.710256C179.803 0.865622 180.424 1.12562 180.966 1.48391C181.512 1.84221 181.946 2.31147 182.276 2.89489C182.602 3.47513 182.767 4.18537 182.767 5.02245C182.767 6.17025 182.444 7.10879 181.794 7.83171C181.144 8.55464 180.262 9.04293 179.143 9.29659L183.373 16.3229H179.971L176.299 9.61049H174.241V16.3229H171.422V0.475623ZM176.546 7.3022C176.949 7.3022 177.352 7.27366 177.754 7.21342C178.157 7.15318 178.518 7.0422 178.839 6.87732C179.159 6.71244 179.425 6.47781 179.635 6.17342C179.844 5.86903 179.948 5.47586 179.948 4.99708C179.948 4.56586 179.85 4.21074 179.657 3.93489C179.463 3.65903 179.216 3.44025 178.918 3.27538C178.62 3.1105 178.281 2.99952 177.9 2.93928C177.52 2.87903 177.152 2.8505 176.794 2.8505H174.241V7.30537H176.546V7.3022Z" fill="#000F1F"></path><path d="M198.053 3.78903C197.755 3.4022 197.334 3.07562 196.788 2.81562C196.243 2.55562 195.694 2.42245 195.143 2.42245C194.813 2.42245 194.486 2.46367 194.157 2.54611C193.827 2.62855 193.529 2.75538 193.262 2.9266C192.993 3.09781 192.774 3.32294 192.603 3.59879C192.432 3.87464 192.346 4.20757 192.346 4.5944C192.346 4.95269 192.422 5.25708 192.571 5.51074C192.72 5.7644 192.926 5.98001 193.186 6.16074C193.446 6.3383 193.763 6.49683 194.137 6.63001C194.508 6.76318 194.921 6.89952 195.368 7.03269C195.875 7.19757 196.401 7.38464 196.947 7.59074C197.492 7.8 197.99 8.07586 198.446 8.4183C198.9 8.76073 199.274 9.19512 199.566 9.71512C199.857 10.2383 200.003 10.8851 200.003 11.6619C200.003 12.5117 199.848 13.2537 199.534 13.8878C199.22 14.5219 198.802 15.0483 198.282 15.4668C197.758 15.8854 197.146 16.1993 196.446 16.4054C195.745 16.6115 195.006 16.7193 194.229 16.7193C193.199 16.7193 192.194 16.529 191.208 16.1485C190.222 15.768 189.416 15.2037 188.792 14.4585L190.805 12.5783C191.192 13.1141 191.712 13.5422 192.362 13.8529C193.012 14.1637 193.649 14.3222 194.277 14.3222C194.607 14.3222 194.94 14.281 195.285 14.1985C195.628 14.1161 195.938 13.9798 196.214 13.7863C196.49 13.5929 196.715 13.3488 196.886 13.0602C197.058 12.7685 197.143 12.4071 197.143 11.9759C197.143 11.5446 197.045 11.2117 196.852 10.9359C196.658 10.66 196.395 10.4222 196.068 10.2193C195.739 10.0163 195.352 9.84195 194.905 9.69293C194.458 9.5439 193.988 9.38854 193.494 9.22366C193.015 9.07464 192.539 8.89708 192.061 8.68781C191.582 8.47854 191.154 8.20269 190.773 7.86025C190.393 7.51781 190.082 7.0961 189.844 6.59513C189.606 6.09415 189.486 5.47269 189.486 4.72757C189.486 3.9222 189.654 3.22781 189.99 2.64757C190.326 2.06733 190.767 1.58538 191.309 1.20489C191.851 0.824403 192.473 0.542208 193.167 0.355135C193.862 0.168062 194.566 0.0761108 195.282 0.0761108C196.087 0.0761108 196.906 0.218794 197.733 0.500988C198.561 0.783183 199.28 1.21123 199.892 1.77562L198.056 3.78903H198.053Z" fill="#000F1F"></path><path d="M56.3218 24.589C56.0333 24.2149 55.6242 23.8978 55.0979 23.6473C54.5715 23.3936 54.0389 23.2668 53.5062 23.2668C53.1891 23.2668 52.8689 23.308 52.5518 23.3873C52.2347 23.4666 51.9462 23.5902 51.6862 23.7551C51.4262 23.92 51.2137 24.1388 51.0457 24.4051C50.8776 24.6714 50.7952 24.9949 50.7952 25.369C50.7952 25.7146 50.8681 26.0127 51.0108 26.2568C51.1567 26.5041 51.3533 26.7134 51.6069 26.8846C51.8574 27.059 52.165 27.2112 52.5264 27.3412C52.8879 27.4712 53.2842 27.6012 53.7186 27.7312C54.2101 27.8897 54.7174 28.0705 55.2469 28.2734C55.7733 28.4763 56.2584 28.7427 56.6991 29.0756C57.1398 29.4085 57.5013 29.8271 57.7835 30.3312C58.0657 30.8385 58.2052 31.4663 58.2052 32.2178C58.2052 33.0422 58.053 33.7619 57.7486 34.3739C57.4442 34.989 57.0415 35.4963 56.5342 35.9022C56.0269 36.308 55.4372 36.6092 54.7554 36.8122C54.0769 37.0151 53.3603 37.1166 52.6089 37.1166C51.6133 37.1166 50.6367 36.9327 49.6823 36.5648C48.7279 36.197 47.9479 35.6517 47.3423 34.9288L49.2923 33.1088C49.6696 33.6288 50.1706 34.0409 50.7984 34.3453C51.4262 34.6497 52.0445 34.8019 52.6501 34.8019C52.9672 34.8019 53.2937 34.7639 53.6267 34.6814C53.9596 34.6022 54.2576 34.469 54.5272 34.2819C54.7935 34.0949 55.0123 33.8602 55.1772 33.578C55.342 33.2958 55.4276 32.947 55.4276 32.5253C55.4276 32.1036 55.3325 31.7866 55.1454 31.517C54.9584 31.2507 54.7047 31.0192 54.3876 30.8227C54.0706 30.6261 53.6933 30.458 53.262 30.3122C52.8276 30.1663 52.3742 30.0173 51.8955 29.8556C51.4325 29.7129 50.9696 29.5385 50.5067 29.3356C50.0437 29.1327 49.6284 28.8663 49.2606 28.5334C48.8928 28.2005 48.5916 27.7946 48.3601 27.3095C48.1286 26.8244 48.0145 26.2219 48.0145 25.499C48.0145 24.719 48.1762 24.0468 48.5028 23.4824C48.8294 22.918 49.2542 22.4519 49.7806 22.0841C50.3069 21.7163 50.9062 21.4405 51.5784 21.2597C52.2506 21.079 52.9323 20.9902 53.6267 20.9902C54.4067 20.9902 55.1993 21.1266 55.9984 21.4024C56.8006 21.6783 57.4981 22.0905 58.0911 22.639L56.3123 24.589H56.3218Z" fill="#000F1F"></path><path d="M68.5259 30.0712L62.7615 21.3802H66.1003L69.9591 27.839L73.8591 21.3802H77.0235L71.2591 30.0712V36.7266H68.5291V30.0712H68.5259Z" fill="#000F1F"></path><path d="M82.6357 21.3802H86.2566L93.3876 32.8678H93.432V21.3802H96.162V36.7266H92.6932L85.41 24.8712H85.3657V36.7266H82.6357V21.3802Z" fill="#000F1F"></path><path d="M103.876 21.3802H109.317C110.313 21.3802 111.318 21.5102 112.33 21.7702C113.341 22.0302 114.251 22.4615 115.06 23.0607C115.868 23.66 116.524 24.4495 117.032 25.4229C117.536 26.3995 117.79 27.6075 117.79 29.0534C117.79 30.3978 117.536 31.5519 117.032 32.5222C116.524 33.4892 115.868 34.2851 115.06 34.9066C114.251 35.528 113.341 35.9878 112.33 36.2827C111.318 36.5775 110.313 36.7266 109.317 36.7266H103.876V21.3802ZM108.883 34.3422C109.59 34.3422 110.3 34.2597 111.007 34.0917C111.714 33.9268 112.355 33.6446 112.926 33.2451C113.496 32.8488 113.962 32.3097 114.324 31.6312C114.685 30.9527 114.866 30.0934 114.866 29.0534C114.866 27.9563 114.685 27.059 114.324 26.3646C113.962 25.6702 113.496 25.128 112.926 24.738C112.355 24.348 111.714 24.0817 111.007 23.9358C110.3 23.79 109.59 23.7202 108.883 23.7202H106.606V34.3422H108.883Z" fill="#000F1F"></path><path d="M124.768 21.3802H127.498V36.7266H124.768V21.3802Z" fill="#000F1F"></path><path d="M146.291 24.979C145.885 24.4305 145.359 24.0278 144.709 23.7773C144.059 23.5236 143.422 23.3968 142.8 23.3968C142.004 23.3968 141.281 23.5427 140.631 23.8312C139.981 24.1197 139.42 24.5193 138.951 25.0234C138.482 25.5307 138.12 26.1205 137.867 26.8022C137.613 27.4807 137.486 28.2195 137.486 29.0122C137.486 29.8492 137.61 30.6166 137.854 31.311C138.098 32.0053 138.45 32.6014 138.903 33.0992C139.357 33.597 139.905 33.9839 140.539 34.2597C141.174 34.5356 141.89 34.6719 142.686 34.6719C143.482 34.6719 144.24 34.5102 144.874 34.1836C145.508 33.857 146.022 33.429 146.412 32.8931L148.599 34.4309C147.921 35.2839 147.09 35.9434 146.107 36.4127C145.124 36.8819 143.977 37.1166 142.661 37.1166C141.462 37.1166 140.359 36.9168 139.357 36.5205C138.352 36.1241 137.489 35.5661 136.766 34.8527C136.043 34.1361 135.479 33.2863 135.076 32.2939C134.67 31.3046 134.471 30.2107 134.471 29.009C134.471 27.8073 134.683 26.6722 135.111 25.6829C135.536 24.6936 136.123 23.8502 136.868 23.159C137.613 22.4646 138.488 21.9319 139.499 21.5546C140.511 21.1805 141.608 20.9902 142.794 20.9902C143.285 20.9902 143.799 21.0378 144.332 21.1297C144.868 21.2249 145.378 21.3675 145.869 21.5641C146.361 21.7607 146.824 22.0017 147.258 22.2902C147.693 22.5788 148.06 22.9275 148.365 23.3302L146.285 24.979H146.291Z" fill="#000F1F"></path><path d="M161.549 21.3802L168.16 36.7266H165.04L163.61 33.2166H156.954L155.566 36.7266H152.509L159.183 21.3802H161.549ZM162.655 30.8734L160.293 24.6302L157.887 30.8734H162.655Z" fill="#000F1F"></path><path d="M171.112 23.7646V21.3802H183.249V23.7646H178.547V36.7266H175.817V23.7646H171.112Z" fill="#000F1F"></path><path d="M189.359 21.3802H199.525V23.7646H192.089V27.6646H199.135V29.9634H192.089V34.2978H199.915V36.7266H189.359V21.3802Z" fill="#000F1F"></path><path d="M2.28292 10.1844H1.77244V26.5041H2.28292V10.1844Z" fill="#239373"></path><path d="M10.0151 13.9417L1.91102 18.1227L2.14508 18.5764L10.2491 14.3954L10.0151 13.9417Z" fill="#239373"></path><path d="M18.0821 1.7946L1.91061 9.95632L2.14062 10.412L18.3121 2.25033L18.0821 1.7946Z" fill="#239373"></path><path d="M18.3101 1.79701L18.0801 2.25278L34.253 10.4117L34.483 9.95591L18.3101 1.79701Z" fill="#239373"></path><path d="M18.4536 2.0261H17.9431V10.1875H18.4536V2.0261Z" fill="#239373"></path><path d="M18.3117 9.95926L18.0821 10.4152L34.255 18.5599L34.4847 18.104L18.3117 9.95926Z" fill="#239373"></path><path d="M34.6275 18.33H34.117V26.5041H34.6275V18.33Z" fill="#239373"></path><path d="M18.3461 18.1159L18.1158 18.5715L34.2533 26.7302L34.4836 26.2746L18.3461 18.1159Z" fill="#239373"></path><path d="M18.2317 20.3719C19.3507 20.3719 20.2578 19.4648 20.2578 18.3458C20.2578 17.2268 19.3507 16.3197 18.2317 16.3197C17.1127 16.3197 16.2056 17.2268 16.2056 18.3458C16.2056 19.4648 17.1127 20.3719 18.2317 20.3719Z" fill="#239373"></path><path d="M2.0261 20.3561C3.14508 20.3561 4.05219 19.449 4.05219 18.33C4.05219 17.211 3.14508 16.3039 2.0261 16.3039C0.907114 16.3039 0 17.211 0 18.33C0 19.449 0.907114 20.3561 2.0261 20.3561Z" fill="#239373"></path><path d="M10.1305 7.7017C11.2495 7.7017 12.1566 6.79458 12.1566 5.6756C12.1566 4.55662 11.2495 3.64951 10.1305 3.64951C9.01149 3.64951 8.10438 4.55662 8.10438 5.6756C8.10438 6.79458 9.01149 7.7017 10.1305 7.7017Z" fill="#239373"></path><path d="M10.1305 33.169C11.2495 33.169 12.1566 32.2619 12.1566 31.1429C12.1566 30.0239 11.2495 29.1168 10.1305 29.1168C9.01149 29.1168 8.10438 30.0239 8.10438 31.1429C8.10438 32.2619 9.01149 33.169 10.1305 33.169Z" fill="#239373"></path><path d="M18.1968 12.2105C19.3158 12.2105 20.2229 11.3034 20.2229 10.1844C20.2229 9.0654 19.3158 8.15828 18.1968 8.15828C17.0778 8.15828 16.1707 9.0654 16.1707 10.1844C16.1707 11.3034 17.0778 12.2105 18.1968 12.2105Z" fill="#239373"></path><path d="M18.1968 4.05219C19.3158 4.05219 20.2229 3.14508 20.2229 2.0261C20.2229 0.907114 19.3158 0 18.1968 0C17.0778 0 16.1707 0.907114 16.1707 2.0261C16.1707 3.14508 17.0778 4.05219 18.1968 4.05219Z" fill="#239373"></path><path d="M18.1968 36.6917C19.3158 36.6917 20.2229 35.7845 20.2229 34.6656C20.2229 33.5466 19.3158 32.6395 18.1968 32.6395C17.0778 32.6395 16.1707 33.5466 16.1707 34.6656C16.1707 35.7845 17.0778 36.6917 18.1968 36.6917Z" fill="#239373"></path><path d="M18.1968 28.5334C19.3158 28.5334 20.2229 27.6263 20.2229 26.5073C20.2229 25.3883 19.3158 24.4812 18.1968 24.4812C17.0778 24.4812 16.1707 25.3883 16.1707 26.5073C16.1707 27.6263 17.0778 28.5334 18.1968 28.5334Z" fill="#239373"></path><path d="M2.0261 28.5334C3.14508 28.5334 4.05219 27.6263 4.05219 26.5073C4.05219 25.3883 3.14508 24.4812 2.0261 24.4812C0.907114 24.4812 0 25.3883 0 26.5073C0 27.6263 0.907114 28.5334 2.0261 28.5334Z" fill="#239373"></path><path d="M10.1305 24.6809C11.2495 24.6809 12.1566 23.7738 12.1566 22.6548C12.1566 21.5359 11.2495 20.6288 10.1305 20.6288C9.01149 20.6288 8.10438 21.5359 8.10438 22.6548C8.10438 23.7738 9.01149 24.6809 10.1305 24.6809Z" fill="#239373"></path><path d="M10.1305 16.1929C11.2495 16.1929 12.1566 15.2858 12.1566 14.1668C12.1566 13.0478 11.2495 12.1407 10.1305 12.1407C9.01149 12.1407 8.10438 13.0478 8.10438 14.1668C8.10438 15.2858 9.01149 16.1929 10.1305 16.1929Z" fill="#239373"></path><path d="M2.0261 12.2105C3.14508 12.2105 4.05219 11.3034 4.05219 10.1844C4.05219 9.0654 3.14508 8.15828 2.0261 8.15828C0.907114 8.15828 0 9.0654 0 10.1844C0 11.3034 0.907114 12.2105 2.0261 12.2105Z" fill="#239373"></path><path d="M34.3707 20.3561C35.4897 20.3561 36.3968 19.449 36.3968 18.33C36.3968 17.211 35.4897 16.3039 34.3707 16.3039C33.2517 16.3039 32.3446 17.211 32.3446 18.33C32.3446 19.449 33.2517 20.3561 34.3707 20.3561Z" fill="#239373"></path><path d="M26.2663 7.7017C27.3853 7.7017 28.2924 6.79458 28.2924 5.6756C28.2924 4.55662 27.3853 3.64951 26.2663 3.64951C25.1473 3.64951 24.2402 4.55662 24.2402 5.6756C24.2402 6.79458 25.1473 7.7017 26.2663 7.7017Z" fill="#239373"></path><path d="M26.2663 33.169C27.3853 33.169 28.2924 32.2619 28.2924 31.1429C28.2924 30.0239 27.3853 29.1168 26.2663 29.1168C25.1473 29.1168 24.2402 30.0239 24.2402 31.1429C24.2402 32.2619 25.1473 33.169 26.2663 33.169Z" fill="#239373"></path><path d="M34.3707 28.5334C35.4897 28.5334 36.3968 27.6263 36.3968 26.5073C36.3968 25.3883 35.4897 24.4812 34.3707 24.4812C33.2517 24.4812 32.3446 25.3883 32.3446 26.5073C32.3446 27.6263 33.2517 28.5334 34.3707 28.5334Z" fill="#239373"></path><path d="M26.2663 24.6809C27.3853 24.6809 28.2924 23.7738 28.2924 22.6548C28.2924 21.5359 27.3853 20.6288 26.2663 20.6288C25.1473 20.6288 24.2402 21.5359 24.2402 22.6548C24.2402 23.7738 25.1473 24.6809 26.2663 24.6809Z" fill="#239373"></path><path d="M26.2663 16.1929C27.3853 16.1929 28.2924 15.2858 28.2924 14.1668C28.2924 13.0478 27.3853 12.1407 26.2663 12.1407C25.1473 12.1407 24.2402 13.0478 24.2402 14.1668C24.2402 15.2858 25.1473 16.1929 26.2663 16.1929Z" fill="#239373"></path><path d="M34.3707 12.2105C35.4897 12.2105 36.3968 11.3034 36.3968 10.1844C36.3968 9.0654 35.4897 8.15828 34.3707 8.15828C33.2517 8.15828 32.3446 9.0654 32.3446 10.1844C32.3446 11.3034 33.2517 12.2105 34.3707 12.2105Z" fill="#239373"></path></g><defs><clipPath id="clip0_1074_85"><rect width="200" height="37.1165" fill="white"></rect></clipPath></defs></svg>